<svg xmlns="http://www.w3.org/2000/svg" id="Layer_1" viewBox="0 0 519 584"><defs><style>      .cls-1 {        fill: #08b89d;      }      .cls-2 {        fill: #231f20;      }      .cls-3 {        fill: #44ade2;      }      .cls-4 {        fill: none;        stroke: #a7a9ac;        stroke-linecap: round;        stroke-miterlimit: 10;        stroke-width: 3.62px;      }      .cls-5 {        fill: #6d6e71;      }    </style></defs><path class="cls-3" d="M247.64,245.55c30.54,12.22,18.66-9.67,2.79-32.45-15.87-22.78-26.93-52.2,19.24-43.43,46.17,8.78,62.44,14.1,68.19,5.85,5.75-8.25-24.71-31.9-20.87-50.77,2.82-13.88,31.55-18.71,46.56-20.3-52.49-44.94-129.36-55.14-193.43-19.8-73.26,40.42-105.06,126.76-79.41,203.36,45.13-97.46,127.12-54.39,156.93-42.47"></path><path class="cls-1" d="M401.94,151.63c-9.93-17.99-22.62-33.48-37.27-46.24-32.6,7.8-37.27,23.33-6.78,53.08,29.27,28.56,19.53,39.19,19.53,39.19-9.64,18.46-68.43-2.53-77.65,10.13-13.56,18.61,85.6,87.1,58.07,117.7-21.31,23.68-183.45-81.64-237.13,16.83,51.15,62.43,141.06,81.51,214.26,41.13,82.51-45.52,112.49-149.31,66.97-231.81"></path><polygon class="cls-2" points="89.87 503.71 70.33 503.71 70.33 559.89 52.06 559.89 52.06 503.71 32.51 503.71 32.51 487.62 89.87 487.62 89.87 503.71"></polygon><polygon class="cls-2" points="175.9 559.89 134.63 522.57 134.63 559.89 116.45 559.89 116.45 487.62 121.59 487.62 162.66 525.53 162.66 487.62 180.93 487.62 180.93 559.89 175.9 559.89"></polygon><path class="cls-2" d="M226.47,487.62l12.05,33.67,15.3-33.67h4.15s10.27,22.81,15.3,33.67l12.04-33.67,19.35.1-27.25,72.28h-4.64l-16.89-36.34-16.79,36.34h-4.74l-27.25-72.38h19.35Z"></path><path class="cls-2" d="M348.34,559.89h-18.07v-72.28h31.49c18.86,0,28.04,10.67,28.04,25.68,0,10.07-4.84,17.28-13.73,20.93l19.16,25.67h-21.92l-15.99-22.91h-8.98v22.91ZM348.34,522.67h14.12c4.74,0,9.38-3.46,9.38-9.38,0-6.22-4.64-9.58-9.38-9.58h-14.12v18.96Z"></path><path class="cls-2" d="M420.24,559.89v-72.28h29.52c21.82,0,36.73,14.32,36.73,36.14s-14.81,36.14-36.73,36.14h-29.52ZM438.41,543.8h11.35c8.29,0,18.37-3.55,18.37-19.94s-10.17-20.14-18.37-20.14h-11.35v40.09Z"></path><path class="cls-5" d="M106.24,102.81c3.1,2.5,4.51,5.17,4.25,8.03-.19,2.01-1.24,4.2-3.14,6.56l-2.47,2.82c-.91,1.13-1.44,2.22-1.59,3.26-.11.78,0,1.56.32,2.34.19.41.38.82.57,1.23.11.4.04.75-.21,1.07-.38.47-.83.5-1.35.08l-1.68-1.35c-.31-.25-.47-.65-.48-1.2,0-.55.14-1.22.43-2.02.58-1.74,1.53-3.42,2.84-5.05.23-.29.62-.73,1.15-1.31.54-.58.84-.92.9-1,1.25-1.55,1.7-3.1,1.35-4.66-.35-1.56-1.65-3.25-3.91-5.07-2.42-1.95-4.05-2.39-4.89-1.34-.28.34-.36.73-.27,1.18.1.45.34.83.74,1.14l4.56,3.67c.37.3.83.34,1.39.14.55-.2.95-.21,1.19-.02.42.34.37.84-.16,1.49l-3.46,4.29c-.4.5-.83.57-1.27.21-.29-.23-.38-.61-.27-1.12.11-.52-.08-.98-.58-1.38l-10.35-8.34c-.63-.51-1.17-.49-1.61.06l-2.06,2.56,10.98,8.85c.61.49,1.22.58,1.85.29.63-.3,1.09-.33,1.38-.09.45.36.37.92-.25,1.68l-2.19,2.72c-.4.5-.83.57-1.27.21-.37-.3-.44-.75-.2-1.37.23-.61.07-1.14-.48-1.59l-10.07-8.11c-.5-.4-1.12-.42-1.84-.06-.73.36-1.24.43-1.53.2-.29-.23-.35-.53-.17-.88.18-.35.48-.79.9-1.32l4.63-5.75c-.75-.04-1.61-.29-2.57-.74-.96-.45-1.73-.91-2.32-1.38-1.53-1.23-2.5-2.7-2.92-4.39-.42-1.7-.02-3.3,1.19-4.79.8-1,1.84-1.44,3.12-1.32,1.28.12,2.47.62,3.58,1.52,1.08.87,1.79,1.95,2.12,3.24.33,1.29.11,2.42-.67,3.39-.68.84-1.58,1.24-2.71,1.19-1.13-.05-2.18-.46-3.16-1.24-.55-.44-.95-.83-1.21-1.16.12.71.66,1.44,1.6,2.2,2,1.61,3.94,1.99,5.84,1.13l3.71-4.61c.34-.42.8-.51,1.38-.26l1.83.95c.28.14.46.35.56.64.09.29.03.57-.18.83-.13.16-.73.32-1.82.48-1.08.17-1.96.66-2.61,1.47-.51.63-.52,1.14-.05,1.52l4.06,3.27c-.19-.63-.23-1.18-.12-1.66.1-.48.42-1.05.95-1.7,1.01-1.26,2.32-1.84,3.91-1.75,1.59.09,3.2.79,4.83,2.1M85.31,94.4c-.42-.34-.89-.55-1.39-.63-.5-.08-.9.06-1.2.43-.34.42-.41.92-.21,1.49.2.57.55,1.06,1.05,1.46.45.36.92.57,1.41.62.49.05.89-.13,1.21-.52.38-.47.46-.96.25-1.45-.21-.5-.58-.96-1.12-1.39"></path><path class="cls-5" d="M127.5,89.01c.38.39.33.8-.12,1.25l-2.28,2.23c-.43.42-.83.45-1.18.09-.24-.24-.28-.51-.13-.79.15-.29.23-.46.26-.53.08-.36-.05-.71-.38-1.04l-12.53-12.85c-.68-.7-1.46-1-2.32-.89-.86.11-1.71.57-2.56,1.4-.85.82-1.39,1.68-1.62,2.57-.24.89-.04,1.66.6,2.32.33.34.73.53,1.21.59l3.69-3.6c.36-.35.76-.38,1.18-.09l1.74,1.2c.29.19.45.44.51.74.06.3,0,.53-.17.7-.29.28-.68.43-1.19.45-.95-.01-1.55,0-1.79.05-.55.11-.97.31-1.26.59-.34.33-.5.58-.47.75.02.17.21.43.57.8l9.38,9.61c.45.46.96.58,1.54.35.36-.21.72-.13,1.07.23.38.39.31.83-.19,1.33l-3.95,3.85c-.26.26-.51.42-.74.47-.23.06-.45-.03-.66-.24-.31-.32-.37-.65-.19-.99.18-.34.24-.61.17-.81-.07-.19-.32-.51-.75-.95l-9.19-9.42c-.31-.32-.55-.51-.73-.57-.18-.06-.4.04-.67.29l-2.54,2.47,10.06,10.31c.57.58,1.15.72,1.75.42.57-.18.98-.15,1.22.09.24.24.29.49.17.76-.12.26-.27.47-.44.64l-2.64,2.58c-.53.52-.99.58-1.36.2-.28-.29-.35-.62-.19-.99.16-.37.25-.66.28-.88.05-.38-.09-.74-.42-1.08l-9.14-9.36c-.33-.34-.63-.53-.91-.57-.28-.04-.59.02-.95.18-.36.16-.58.26-.65.28-.29.04-.55-.06-.79-.3-.35-.36-.29-.78.19-1.25l7.39-7.21c-.43-.05-.87-.2-1.34-.43-.46-.23-.94-.6-1.44-1.11-1.18-1.21-1.76-2.53-1.74-3.96.02-1.43.73-2.83,2.13-4.2,1.45-1.41,3.02-2,4.71-1.76,1.48.21,2.95,1.07,4.41,2.57l13.1,13.42c.43.43.85.44,1.29.02.12-.12.29-.16.5-.14.21.03.38.1.5.22"></path><path class="cls-5" d="M142.91,57.82c.73.6.75,1.14.07,1.64-.14.1-.95.07-2.45-.1-.78-.09-1.4.03-1.86.37-.46.34-.51.77-.13,1.29l8.14,11.14c.24.33.49.5.75.52.3-.05.52-.09.67-.11.39-.04.67.06.83.28.36.49.2.99-.48,1.48l-4.33,3.16c-.63.46-1.12.44-1.48-.05-.14-.19-.12-.53.07-1.02.18-.49.28-.81.28-.95,0-.15-.09-.34-.27-.59l-8.06-11.03c-.38-.52-.8-.61-1.26-.27l-1.55,1.14c-.57.42-.97.71-1.18.87,1.23.2,2.45.79,3.67,1.76,1.21.97,2.37,2.22,3.48,3.73,1.41,1.93,2.25,3.85,2.52,5.76.34,2.29-.26,3.99-1.78,5.11-.54.4-1.18.58-1.92.55-.73-.03-1.41-.25-2.05-.66.04.97-.01,1.72-.17,2.26-.24.76-.71,1.4-1.42,1.91-1.47,1.07-3.14,1.23-4.99.45-1.86-.77-3.5-2.14-4.94-4.1-2.41-3.29-3.41-6.24-3.01-8.83.35-2.26,1.78-4.31,4.28-6.14.63-.46,1.3-.85,2.03-1.17.23-.08.9-.34,2-.77.36-.47.79-.93,1.28-1.38.49-.44,1.02-.87,1.59-1.29l8.33-6.09c.82-.6,1.43-.67,1.84-.22l1.49,1.35ZM127.09,58.04c.52.71.71,1.46.59,2.26-.12.8-.55,1.47-1.29,2.01-.68.5-1.44.68-2.29.55-.85-.13-1.53-.55-2.05-1.26-.52-.71-.7-1.46-.55-2.26.15-.8.58-1.45,1.28-1.97.74-.54,1.5-.74,2.31-.62.8.12,1.47.55,2.01,1.29M127.18,68.62c-.15-.09-.47-.06-.97.09-.5.15-1.02.42-1.56.82-1.88,1.37-2.81,3.07-2.79,5.1.02,2.03.91,4.25,2.68,6.66.65.9,1.44,1.7,2.37,2.42.92.72,1.65,1.14,2.19,1.24-.61-.43-1.18-.93-1.72-1.5-.54-.57-1.01-1.12-1.4-1.67-1.19-1.63-1.86-3.1-2-4.4-.13-1.3.38-2.38,1.55-3.23.46-.34.85-.54,1.15-.61.3-.07.71-.07,1.22,0-.34-.64-.59-1.47-.76-2.49-.16-1.02-.15-1.83.04-2.44M132.19,80.53c-.46-.63-1.03-1.09-1.7-1.38-.67-.29-1.24-.27-1.7.07-.52.38-.74.92-.68,1.64.06.71.36,1.44.9,2.18.44.6.96,1.03,1.57,1.29.6.25,1.15.2,1.64-.16.52-.38.75-.93.7-1.65-.05-.72-.29-1.39-.73-1.99M134.33,74.63c-.98-1.34-1.98-2.54-2.99-3.59-1.01-1.05-1.85-1.68-2.53-1.9-.06.84.18,1.93.72,3.26.54,1.33,1.34,2.73,2.4,4.18,1.44,1.97,2.47,3.24,3.09,3.8.62.56,1.16.66,1.65.31.29-.22.22-.96-.24-2.23-.45-1.27-1.15-2.54-2.09-3.83"></path><path class="cls-5" d="M177.69,57.53c.23.45.08.81-.46,1.09l-2.65,1.37c-.39.2-.71.29-.95.26-.24-.03-.41-.13-.5-.31-.09-.18-.09-.38,0-.6.1-.22.19-.39.3-.52.1-.13.18-.23.22-.29.18-.24.14-.62-.13-1.13l-7.62-14.79c-.73-1.41-1.54-2.26-2.45-2.55-.91-.29-1.92-.15-3.03.42-.96.5-1.69,1.09-2.21,1.79-.51.7-.57,1.44-.16,2.22.17.33.36.61.58.84.21.23.49.41.82.54,1.89-.52,3.69-.12,5.4,1.2,1.38,1.07,2.66,2.73,3.82,4.98,1.16,2.25,1.92,4.17,2.29,5.76.64,2.71.42,5.08-.66,7.11-.72,1.32-1.7,2.45-2.92,3.38-.82.61-2.21,1.42-4.16,2.43l-2.29,1.18c-1.02.53-1.76,1.02-2.22,1.49-.46.46-.78,1.12-.95,1.97-.07.38-.06.87.03,1.49.09.61.13.98.11,1.1-.04.59-.25.98-.64,1.18-.27.14-.51.14-.73.01-.22-.13-.41-.36-.58-.69l-1.4-2.71c-.15-.3-.16-.62-.02-.98.14-.35.39-.77.74-1.26.36-.48.9-.98,1.62-1.48.73-.51,1.43-.94,2.12-1.29l4.81-2.48c.6-.31,1.18-.75,1.74-1.32.56-.58.95-1.19,1.18-1.84.53-1.34.49-3.07-.12-5.2-.45-1.6-1.19-3.41-2.23-5.43-.96-1.87-1.95-3.34-2.97-4.42-1.35-1.44-2.56-1.88-3.62-1.34-.82.42-1.21.96-1.18,1.61.03.65.32,1.51.86,2.56l5.15,9.99c.25.48.64.7,1.16.66.53-.04.87.09,1.02.39.14.27.13.54-.03.82-.16.27-.45.52-.87.73l-4.07,2.1c-.45.23-.83.37-1.16.43-.33.05-.57-.05-.71-.33-.19-.36-.13-.76.18-1.19.28-.49.34-.89.18-1.19l-5.93-11.51c-.25-.41-.45-.69-.6-.84-.55-.48-1.23-.52-2.04-.1-.66.34-1.02.8-1.08,1.39-.06.59.11,1.26.5,2.02l5.49,10.64c.31.61.75.82,1.3.65.56-.17.96-.01,1.21.47.25.49-.03.94-.84,1.35l-2.65,1.37c-.72.37-1.2.33-1.43-.12-.22-.42-.11-.84.32-1.25.4-.32.46-.75.19-1.29l-5.07-9.83c-.82-1.59-1.08-3.02-.79-4.27.35-1.51,1.49-2.76,3.4-3.75,1.76-.91,3.39-.93,4.89-.07-.08-.6.11-1.24.57-1.91.46-.67,1.16-1.25,2.1-1.73-.41-.21-.8-.51-1.18-.9-.37-.39-.72-.89-1.03-1.49-.8-1.56-1-3.02-.58-4.39.41-1.37,1.43-2.47,3.05-3.31,1.77-.91,3.4-1.07,4.88-.47,1.48.6,2.68,1.77,3.57,3.51l8.67,16.82c.23.45.5.71.8.78.09.03.32.03.68,0,.47.02.78.19.93.49"></path><path class="cls-5" d="M216.83,45.54c.15.52-.26.92-1.2,1.17l-4.59,1.26c-.94.26-1.49.11-1.64-.45-.08-.29.08-.65.47-1.05.4-.41.53-.84.4-1.3l-2.47-9-2.1.58c.89,3.24.81,6.32-.25,9.21-1.28,3.49-3.76,5.73-7.43,6.74-3.32.91-6.09.79-8.33-.34-2.24-1.14-3.73-3.07-4.48-5.8-1.09-3.97.12-6.43,3.64-7.4-.99-5.92.85-9.52,5.54-10.8,2.83-.78,5.15-.46,6.97.94,1.41,1.07,2.61,2.88,3.59,5.45l2.29-.63-1.08-3.95c-.16-.59-.52-.96-1.07-1.12-.55-.16-.87-.41-.96-.73-.13-.49.27-.86,1.21-1.12l4.56-1.25c.97-.27,1.52-.15,1.65.33.11.39-.04.75-.44,1.07-.4.32-.52.77-.36,1.36l4.13,15.05c.17.62.51.98,1.03,1.09.52.11.83.34.92.7M201.01,39.5l-.38-1.38-1.81.49c.26,1.71.21,3.13-.14,4.26-.45,1.44-1.32,2.34-2.62,2.69-1.4.38-2.67.13-3.8-.77-1.14-.89-2.01-2.12-2.6-3.66-.11,0-.22,0-.33.04-.11.03-.19.05-.22.06-.88.24-1.49.76-1.83,1.55-.34.79-.33,1.84.02,3.14.55,2.02,1.68,3.5,3.4,4.45,1.71.95,3.65,1.12,5.83.52,2.05-.56,3.48-1.96,4.3-4.2.82-2.24.88-4.64.18-7.2M200.07,36.08c-.46-1.67-1.21-3.01-2.26-4.03-1.24-1.21-2.63-1.6-4.15-1.19-1.37.37-2.29,1.37-2.77,2.99-.48,1.62-.5,3.24-.06,4.87.25.91.49,1.46.71,1.64-.47-1.72-.53-3.19-.18-4.38.35-1.2,1.03-1.93,2.04-2.21.94-.26,1.85-.12,2.71.41.86.53,1.53,1.35,2.01,2.44l1.95-.53ZM196.85,40.58c-.21-.75-.54-1.32-1-1.72-.46-.4-.93-.53-1.42-.4-1.14.31-1.46,1.38-.96,3.2.17.62.48,1.14.92,1.56.45.42.9.57,1.35.44.55-.15.92-.53,1.1-1.14.18-.61.18-1.26,0-1.94"></path><path class="cls-5" d="M242.53,32.67c.41,3.51.06,6.27-1.03,8.27-1.09,2.01-2.66,3.13-4.7,3.36-.97.11-1.49-.15-1.57-.78-.05-.47.19-.73.72-.8.6-.07,1.13-.82,1.57-2.26.54-1.79.67-3.92.38-6.39-.26-2.2-.85-4-1.79-5.38-.94-1.38-1.98-2.01-3.12-1.87-.24.03-.49.06-.78.09-.29.03-.55.15-.8.35,1.8,1.46,2.91,3.99,3.32,7.61.3,2.65.06,4.93-.74,6.86-.8,1.93-2.1,2.99-3.91,3.2-.84.1-1.53-.04-2.08-.4-.55-.36-1.04-.89-1.46-1.59-.35.79-.79,1.43-1.33,1.91-.54.48-1.23.78-2.06.87-1.91.22-3.51-.56-4.8-2.33-1.13-1.56-1.83-3.49-2.09-5.79-.42-3.67.1-6.49,1.57-8.46,1.47-1.98,3.71-3.14,6.73-3.49,1.54-.18,3.15-.08,4.82.31.67-.35,1.25-.59,1.72-.73.48-.14,1.17-.26,2.07-.37,2.38-.28,4.46.32,6.24,1.79,1.78,1.47,2.82,3.47,3.11,6.01M226.91,27.92c-.73-.43-1.75-.56-3.05-.41-2.11.24-3.68,1.23-4.7,2.97-1.02,1.74-1.36,4.1-1.01,7.1.14,1.23.45,2.39.94,3.48.48,1.09.91,1.75,1.27,1.98-.23-.54-.47-1.15-.72-1.83-.25-.68-.43-1.5-.54-2.46-.21-1.79-.09-3.25.36-4.38.58-1.45,1.64-2.26,3.18-2.44.9-.1,1.67.09,2.31.6.16-.97.4-1.86.71-2.68.31-.82.73-1.46,1.25-1.93M225.12,40.68c-.09-.81-.34-1.49-.75-2.04-.4-.55-.94-.79-1.61-.71-.64.07-1.09.44-1.35,1.11-.26.66-.35,1.38-.26,2.16.1.88.34,1.57.72,2.07.38.5.9.72,1.58.64.57-.07,1.01-.43,1.32-1.1.31-.67.43-1.38.34-2.12M229.92,35.93c-.2-1.74-.46-3.15-.78-4.21-.32-1.07-.66-1.83-1.04-2.3-.5.36-.88,1.27-1.14,2.7-.26,1.44-.28,3.11-.06,5.02.25,2.14.56,3.66.93,4.55.37.89.8,1.31,1.3,1.25.36-.04.64-.74.84-2.08.19-1.35.18-2.99-.04-4.94"></path><path class="cls-5" d="M268.14,33.21c-.05,2.93-.67,5.35-1.85,7.25-1.36,2.2-3.21,3.28-5.57,3.24l-15.68-.28c-.67-.01-1.01-.35-.99-1.03,0-.37.32-.65.93-.84.61-.12.92-.46.93-1l.25-13.61c0-.47-.1-.79-.34-.97-.37-.18-.66-.33-.88-.47-.22-.14-.32-.36-.32-.66,0-.27.16-.48.47-.62.31-.15.63-.22.96-.21l5.11.09c.84.02,1.26.31,1.25.88,0,.34-.12.56-.34.67-.22.11-.44.24-.67.37-.22.13-.33.35-.34.65l-.27,14.93,4.55.08.26-14.57c0-.47-.24-.84-.74-1.1-.5-.26-.75-.58-.74-.95.01-.6.39-.9,1.13-.89l6.17.11c2.29.04,4,.87,5.12,2.47,1.12,1.61,1.65,3.76,1.6,6.46M266.02,33.15c.04-2.12-.27-3.8-.92-5.03-.65-1.24-1.72-1.87-3.2-1.9-.3,0-.61.11-.92.34-.31.23-.46.51-.47.85l-.26,14.37h.5c1.35.03,2.51-.64,3.48-2,1.14-1.59,1.74-3.8,1.79-6.62"></path><path class="cls-5" d="M292.36,46.57c-.05.33-.19.53-.41.58-.23.05-.56.05-.98-.02l-14.58-2.12.79-5.41c-.4.85-.76,1.58-1.07,2.17-.31.6-.7,1.15-1.15,1.66-.82.89-1.66,1.28-2.51,1.16-.68-.1-1.17-.39-1.48-.88-.46-.68-.58-1.72-.38-3.11l1.78-12.23c.11-.73.13-1.16.09-1.29-.05-.12-.28-.32-.68-.58-.22-.1-.43-.23-.61-.39-.18-.16-.26-.34-.23-.54.09-.63.56-.89,1.39-.77l3.3.48c.43.06.77.17,1,.32.23.15.32.41.27.78-.03.2-.23.38-.59.53-.11.05-.39.13-.83.24-.44.1-.73.64-.87,1.6l-1.45,9.93c-.1.67-.11,1.1-.04,1.29.07.2.28.32.61.37.77.11,1.63-.68,2.6-2.37.96-1.69,1.59-3.52,1.87-5.48l.52-3.54c.07-.5.1-.85.08-1.06-.02-.21-.14-.36-.36-.46-.22-.1-.41-.25-.56-.44-.14-.19-.21-.35-.19-.49.04-.27.17-.47.39-.6.22-.14.45-.19.67-.16l5.65.82c.72.1,1.04.42.96.96-.02.17-.1.29-.21.38-.11.09-.29.18-.53.28-.24.1-.41.2-.53.28-.27.2-.43.5-.49.9l-2.09,14.32,4.86.71,2.01-13.77c.06-.43.04-.8-.07-1.11-.11-.3-.32-.53-.62-.68s-.48-.24-.55-.28c-.18-.16-.25-.38-.21-.65.06-.4.23-.64.51-.72.29-.08.63-.09,1.03-.03l5.15.75c.43.06.77.18,1,.35.23.17.32.45.26.85-.03.23-.12.39-.27.47-.15.08-.38.18-.71.31-.39.08-.65.59-.78,1.52l-1.8,12.36c-.08.57-.09.93-.01,1.1.07.17.28.39.62.68.34.29.48.63.42,1.03"></path><path class="cls-5" d="M314.92,36.52c0,.28-.12.54-.36.77-.24.23-.49.32-.74.25-.36-.1-.7-.44-1.03-1.04-.21-.39-.41-.76-.59-1.14-.35-.53-.8-.87-1.35-1.02-.43-.11-.73-.11-.92.02-.19.13-.37.52-.55,1.18l-3.35,12.61c-.18.69-.04,1.21.43,1.54.36.2.49.52.38.95-.14.53-.53.71-1.18.53l-5.29-1.41c-.33-.09-.58-.22-.78-.39-.2-.18-.26-.41-.18-.71.09-.33.37-.55.86-.67.32-.02.54-.11.67-.27.13-.16.27-.54.43-1.13l3.36-12.67c.11-.43.15-.73.11-.92-.04-.19-.22-.32-.55-.41l-3.51-.93-3.68,13.87c-.21.79-.05,1.35.46,1.7.52.35.72.74.61,1.16-.13.49-.57.64-1.32.44l-3.57-.95c-.29-.08-.54-.22-.75-.43-.21-.21-.27-.45-.21-.71.08-.29.36-.48.83-.57.48-.08.78-.16.9-.23.39-.18.65-.48.76-.9l3.37-12.7c.21-.78-.01-1.39-.67-1.8-.29-.15-.49-.29-.59-.42-.1-.13-.1-.36-.02-.69.13-.49.52-.65,1.16-.48l16.39,4.35c.46.12.66.52.62,1.21l-.16,2Z"></path><path class="cls-5" d="M336.41,65.84c-.24.59-.92.66-2.04.21l-8.08-3.28c-1.2.9-2.77,1.51-4.72,1.85-2.34.4-4.55.17-6.64-.68-2.09-.85-3.62-1.9-4.59-3.17-1.14-1.48-1.38-3.04-.71-4.68.26-.65.68-1.03,1.25-1.14.57-.11,1.22-.02,1.97.28l10.86,4.42c.74-.94,1.43-1.93,2.05-2.98.62-1.04,1.21-2.26,1.78-3.64.83-2.04,1.19-3.5,1.07-4.39-.11-.89-.56-1.49-1.34-1.81l-1.45,3.58c-1.05,2.57-2.39,4.22-4.04,4.94-1.43.63-3.09.55-5.01-.22-1.69-.69-2.85-1.72-3.45-3.1-.71-1.57-.64-3.42.23-5.55,1.16-2.85,2.91-4.33,5.24-4.44l1.55-3.81c.22-.53.05-1.07-.49-1.62-.28-.3-.36-.59-.25-.87.24-.59.83-.7,1.77-.32l12.41,5.05c.47.19.79.36.95.49.16.14.18.49.06,1.06l-.35,1.93c-.07.26-.26.48-.56.65-.31.17-.6.19-.88.08-.22-.09-.49-.61-.81-1.56-.32-.95-.91-1.6-1.75-1.94-.16-.06-.32-.12-.5-.17-.18-.05-.33.08-.46.4l-1.52,3.74,2.05.83c1.64.67,2.59,1.87,2.83,3.59.24,1.72-.07,3.65-.94,5.78-.64,1.57-1.28,2.82-1.94,3.76-.65.94-1.32,1.69-1.98,2.26l1.36.55c1.03.42,1.77.07,2.23-1.05l6.31-15.52c.25-.61.2-1.11-.16-1.48-.36-.37-.46-.74-.32-1.09.2-.48.61-.6,1.23-.35l5.25,2.13c.65.27.89.63.7,1.1-.11.28-.43.44-.96.48-.53.04-.88.3-1.07.77l-6.65,16.35c-.25.62-.15,1.21.32,1.77.25.28.32.55.22.8M321.85,60.96l-9.42-3.83c-.56-.23-.94-.11-1.13.36-.3.75-.02,1.58.85,2.48.87.9,1.95,1.61,3.23,2.13,1.06.43,2.17.55,3.33.34,1.16-.2,2.2-.7,3.14-1.48M320.79,49.73l1.93-4.74-1.83-.74c-1.06-.43-2.09-.38-3.09.15-1,.53-1.79,1.51-2.37,2.93-.58,1.42-.73,2.58-.45,3.46.28.89.9,1.53,1.87,1.92.78.32,1.5.22,2.16-.28.66-.51,1.25-1.4,1.78-2.7M323.4,43.3l1.73-4.26-2.25-.92-1.73,4.26,2.25.91Z"></path><path class="cls-5" d="M373.85,82.07l-1.86,1.86c-.26.27-.47.39-.62.38-.15-.02-.5-.22-1.06-.59l-19.58-13.21c-1.12-.76-1.89-1.62-2.33-2.61-.52-1.16-.41-2.29.33-3.38.49-.73,1.14-1.22,1.94-1.47.8-.26,1.64-.19,2.52.2.13.05.87.47,2.23,1.26,1.36.79,2.54,1.29,3.54,1.5s2,.08,3.01-.39c1-.46,1.93-1.33,2.78-2.59,1.06-1.57,1.55-3.09,1.49-4.56-.06-1.47-.75-2.65-2.07-3.54-1.65-1.11-3.1-1.57-4.36-1.36-1.26.21-2.36,1.01-3.3,2.41-.21.31-.23.52-.06.63.69-.84,1.47-1.39,2.36-1.64.89-.26,1.75-.1,2.59.46.92.62,1.39,1.41,1.39,2.37,0,.96-.32,1.91-.96,2.86-.83,1.23-1.79,1.98-2.88,2.24-1.09.26-2.21,0-3.36-.77-1.01-.68-1.58-1.61-1.71-2.8-.15-1.4.36-2.97,1.53-4.71,1.11-1.65,2.61-2.56,4.5-2.73,1.89-.17,3.81.4,5.76,1.72,2.12,1.43,3.47,3.14,4.05,5.11.62,2.21.16,4.46-1.38,6.76-1.06,1.57-2.37,2.61-3.95,3.14-1.57.52-3.31.47-5.2-.15-1.56-.89-2.75-1.53-3.58-1.93-1.55-.72-2.63-.62-3.26.3-.34.51-.38,1.07-.11,1.7.27.63.77,1.19,1.49,1.68l14.43,9.73c.87.59,1.75.9,2.66.94.95-.01,1.89-.03,2.83-.04.22.15.37.35.43.59.06.24-.02.46-.22.64M358.4,59.57c.24-.36.38-.78.39-1.26.02-.48-.12-.81-.39-1-.28-.19-.64-.2-1.08-.03-.44.17-.79.45-1.06.84-.7,1.03-.7,1.79,0,2.26.31.21.67.22,1.1.04.43-.18.77-.47,1.04-.86"></path><path class="cls-5" d="M396.78,94.23c-1.87,2.05-3.83,3.4-5.88,4.04-2.31.73-4.29.35-5.93-1.15-1.35-1.23-1.9-2.56-1.67-3.99s1.08-2.95,2.54-4.55l2.6-2.85c1.64-1.8,2.59-3.27,2.85-4.4.3-1.33-.15-2.54-1.35-3.63-1.67-1.52-3.61-1.92-5.82-1.2-1.67.53-3.15,1.51-4.45,2.93-.93,1.02-1.65,2.05-2.17,3.09-.51,1.04-.64,1.95-.39,2.72.16-.58.41-1.26.75-2.02.33-.77.77-1.45,1.32-2.05,1.07-1.17,2.27-1.97,3.6-2.4,1.33-.43,2.48-.21,3.45.68,1.1,1,1.42,2.27.96,3.82-.35,1.23-1.09,2.47-2.23,3.72-1.39,1.52-2.81,2.55-4.26,3.1-1.71.63-3.13.43-4.25-.59-1.37-1.25-1.82-3.03-1.36-5.35.41-2,1.35-3.81,2.83-5.43,2.09-2.29,4.27-3.71,6.53-4.25,2.8-.68,5.43.09,7.88,2.33,1.29,1.17,2.19,2.26,2.71,3.26.52,1,.62,2.2.29,3.6-.2.82-.6,1.68-1.2,2.58-.6.9-1.24,1.74-1.95,2.51-.25.27-.68.75-1.3,1.42-.61.67-1.08,1.19-1.4,1.54-.96,1.05-1.61,1.92-1.96,2.6-.35.69-.29,1.24.18,1.68.9.82,2.12.81,3.66-.03,1.19-.66,2.5-1.77,3.94-3.35,1.07-1.18,1.91-2.45,2.52-3.82.61-1.37.74-2.35.39-2.94-.35-.59-.58-.95-.71-1.06s-.22-.21-.3-.27c-.2-.18-.31-.43-.32-.74-.02-.31.07-.56.25-.76.32-.35.62-.51.91-.47.29.03.62.22.99.56,1.54,1.41,1.85,3.4.91,5.98-.68,1.85-1.74,3.56-3.17,5.14M381.9,87.06c.48-.52.78-1.13.92-1.83.13-.7-.02-1.25-.47-1.66-.47-.43-1.06-.54-1.75-.33-.69.21-1.34.64-1.93,1.29-.48.52-.78,1.13-.9,1.81-.12.68.08,1.27.6,1.74.45.41,1.01.5,1.68.26.67-.23,1.29-.66,1.86-1.29"></path><path class="cls-5" d="M411.03,117.63c-2.6,2.19-5.36,2.99-8.29,2.41-2.92-.58-5.64-2.36-8.13-5.32-2.17-2.58-3.19-5.45-3.06-8.59.1-3.34,1.52-6.16,4.25-8.47,2.04-1.71,4.13-2.63,6.27-2.76,1.76-.11,2.94.19,3.55.92.26.31.33.65.2,1.02-.07.19-.19.35-.37.51-.26.22-.63.23-1.13.03-.5-.2-.89-.31-1.17-.34-.78-.09-1.61,0-2.47.29-1.11.36-2.21.99-3.29,1.91-2.45,2.06-3.75,4.45-3.89,7.17-.14,2.5.64,4.77,2.35,6.81,1.74,2.07,3.67,3.18,5.81,3.34,2.14.17,4.25-.63,6.33-2.38,1.18-1,2.02-1.98,2.53-2.95.5-.97.49-1.77-.03-2.39l-.46-.54-3.66,3.08c-1.46,1.23-2.99,1.78-4.58,1.63-1.59-.14-3.03-.99-4.33-2.54-1.21-1.45-1.75-3.02-1.6-4.73.15-1.71,1.04-3.26,2.69-4.64,1-.84,2.05-1.39,3.15-1.62,1.09-.24,2.15-.12,3.16.35l3.36-2.83c.28-.24.36-.62.22-1.14-.13-.53-.07-.9.18-1.11.46-.39,1.02-.2,1.67.58l8.79,10.46c.43.52.45,1.01.05,1.48l-1.48,1.7c-.13.16-.33.28-.59.36-.26.09-.5,0-.71-.26-.3-.36-.34-.99-.11-1.89.23-.9.18-1.56-.17-1.97l-.98-1.16-3.53,2.96.88,1.04c1.24,1.47,1.75,3.07,1.55,4.78s-1.2,3.32-2.97,4.81M402.87,107.9l3.7-3.11c.15-.13.23-.22.24-.27,0-.05-.06-.15-.19-.3l-.87-1.04c-1.76-2.1-3.75-2.22-5.96-.37-2.21,1.86-2.6,3.63-1.18,5.32.52.61,1.19.87,2.02.76.83-.1,1.58-.44,2.25-1M408.42,103.23l3.52-2.96-1.72-2.05-3.52,2.96,1.73,2.05Z"></path><path class="cls-5" d="M104.28,372.68c-2.41,2.04-4.9,2.85-7.47,2.42-2.33-.41-4.47-1.76-6.41-4.05l-2.65-3.12c-.76-.9-1.57-1.54-2.41-1.9-.84-.37-1.83-.46-2.97-.26-1.14.19-1.84.14-2.1-.17-.15-.18-.23-.38-.22-.61,0-.23.07-.4.2-.51l1.66-1.41c.72-.61,1.69-.61,2.91-.01.71.37,1.52.94,2.43,1.72s1.75,1.63,2.53,2.56l1.31,1.54c1.33,1.57,2.89,2.32,4.69,2.26s3.78-1.02,5.96-2.86c1.15-.98,1.81-1.82,1.98-2.54.16-.71-.02-1.39-.57-2.04l-2.52,2.14c-2.01,1.71-3.91,2.54-5.68,2.49-1.77-.05-3.28-.8-4.52-2.27-1.11-1.31-1.62-2.85-1.53-4.61.09-1.76.85-3.24,2.26-4.43,1.18-1,2.29-1.62,3.32-1.86,1.03-.24,2.22-.14,3.54.28l3.62-3.07c.21-.17.22-.52.05-1.04-.17-.51-.12-.89.16-1.13.49-.41,1.04-.26,1.65.46l8.54,10.07c.35.41.57.75.65,1.01.09.26,0,.56-.24.9l-1.45,1.83c-.43.54-.91.49-1.46-.15-.09-.1-.1-.7-.02-1.8.07-1.1-.19-2-.78-2.69-.28-.34-.58-.37-.89-.11l-3.24,2.74,1.31,1.54c1.2,1.41,1.58,2.95,1.13,4.61-.38,1.47-1.3,2.83-2.76,4.07M96.06,363.08l3.81-3.24-1.21-1.43c-.72-.85-1.64-1.24-2.76-1.17-1.12.07-2.23.56-3.32,1.49-.94.8-1.5,1.63-1.69,2.49-.18.86.05,1.68.7,2.45.54.64,1.22.87,2.03.7.81-.18,1.62-.61,2.44-1.3M101.34,358.6l3.59-3.04-1.57-1.85-3.59,3.04,1.57,1.85Z"></path><path class="cls-5" d="M123.84,398.01c-.29.32-.67.28-1.12-.12l-1.99-1.8c-.2-.18-.4-.38-.6-.58-.2-.2-.19-.43.04-.68.18-.2.34-.3.47-.29.13,0,.4.05.8.14.4.09.78-.07,1.14-.47l10.67-11.81c2.2-2.43,2.29-4.55.29-6.36-.83-.75-1.69-1.19-2.58-1.34-.89-.15-1.7.18-2.42.98-.43.48-.56.82-.38,1.02,1.28,1.15,1.79,2.68,1.55,4.59-.24,1.9-1.24,3.82-2.99,5.76-1.93,2.14-3.97,3.59-6.11,4.35-2.42.87-4.4.62-5.92-.76l-12.28-11.09c-.12-.11-.21-.26-.27-.45-.12-.38-.04-.72.24-1.02.25-.28.68-.28,1.29,0,.61.28,1.08.24,1.4-.11l9.37-10.38c.29-.33.34-.72.14-1.17-.2-.46-.18-.82.07-1.1.36-.4.87-.31,1.51.27l3.8,3.43c.6.54.71,1.01.35,1.41-.25.28-.62.35-1.1.2-.49-.14-.89-.04-1.21.32l-9.99,11.06,3.38,3.05,9.89-10.95c.23-.25.33-.48.32-.67-.01-.19-.08-.46-.2-.8-.19-.36-.14-.7.15-1.03.2-.23.43-.32.69-.27.25.05.5.17.72.38l4.12,3.73c.03-.43.14-.85.35-1.25.21-.4.51-.83.92-1.28,1.2-1.33,2.4-2.08,3.61-2.26,1.47-.22,2.97.36,4.49,1.74,1.65,1.49,2.37,3.1,2.16,4.82-.21,1.72-1.26,3.62-3.14,5.7l-11.52,12.75c-.29.33-.32.72-.07,1.17.25.45.23.84-.07,1.17M125.15,385.62c1.34-1.48,2.17-2.95,2.5-4.4.32-1.45.04-2.57-.84-3.37-.3-.27-.66-.46-1.06-.54-.4-.09-.72,0-.94.24l-9.76,10.8.42.38c1.01.91,2.33,1.17,3.97.78,1.88-.45,3.78-1.75,5.72-3.89"></path><path class="cls-5" d="M151.42,403.88c-1.29,1.9-2.38,3.25-3.28,4.03-1.39,1.22-2.97,1.89-4.72,2.01-1.75.12-3.31-.28-4.68-1.21-.35.52-.5,1.01-.45,1.48.05.47.34.88.87,1.24.34.23.73.34,1.18.34.45,0,.76.05.92.17.31.21.43.55.38,1.02-.05.47-.21.9-.48,1.29-.72,1.06-1.36,1.4-1.92,1.02-.17-.11-.28-.24-.33-.37-.05-.14-.1-.33-.15-.59-.05-.26-.28-.53-.7-.81-.42-.29-1.71-.3-3.87-.06-2.16.25-3.93-.09-5.3-1.02-1.57-1.06-2.58-2.3-3.05-3.71-.26-.87-.33-1.89-.19-3.06.02-.15,0-.32-.06-.5-.06-.18-.15-.41-.28-.68-.12-.27-.23-.5-.32-.7-.09-.2-.06-.41.1-.64.13-.2.3-.31.51-.35.21-.04.5.06.86.31l3.94,2.66c-.47.88-.77,1.56-.9,2.05-.4,1.54-.03,2.7,1.08,3.45.86.58,1.98.8,3.35.65,1-.15,2.01-.29,3.04-.43-.24-.13-.41-.21-.49-.27-.57-.38-1-.79-1.3-1.22-.31-.43-.54-.91-.71-1.46-.17-.54-.23-1-.18-1.37.05-.38.18-.78.39-1.2l-7.45-5.04c-.45-.31-.78-.58-1-.83-.22-.25-.22-.53-.01-.84.15-.22.34-.34.56-.35.23-.01.42-.01.59,0,.17.01.29.02.37.04.29.03.57-.17.86-.59l7.68-11.34c.21-.31.3-.54.29-.69-.02-.15-.1-.39-.26-.7-.22-.52-.27-.86-.16-1.03.15-.22.37-.35.64-.36.28-.02.65.13,1.13.46l4.02,2.72c.78.53,1.02,1.02.72,1.47-.21.31-.55.43-1.03.35-.18-.04-.33-.08-.46-.13-.26.03-.6.34-1,.93l-8.04,11.88,3.65,2.47,7.9-11.67c.47-.7.59-1.25.35-1.64-.25-.39-.38-.64-.4-.76s.02-.26.14-.43c.19-.28.45-.41.78-.39.33.02.65.13.96.34l4.57,3.09c.75.51,1.33.97,1.74,1.39.41.42.77.96,1.1,1.63.55,1.11.67,2.38.35,3.82-.32,1.44-.93,2.81-1.82,4.13M149.08,403.46c1.61-2.38,2.39-4.31,2.33-5.78-.06-1.06-.58-1.92-1.55-2.58-.5-.34-.93-.45-1.27-.34-.34.12-.72.48-1.14,1.1l-7.62,11.26c1.51,1.02,3.07,1.2,4.68.53,1.61-.67,3.14-2.06,4.58-4.19M153.69,387.62c-.49.73-1.15,1.15-1.98,1.26-.83.11-1.61-.08-2.33-.57-.67-.46-1.1-1.09-1.28-1.9s-.03-1.59.47-2.31c.49-.73,1.15-1.16,1.97-1.29.82-.14,1.57.02,2.24.48.75.51,1.22,1.17,1.4,1.99.18.82.02,1.6-.49,2.35"></path><path class="cls-5" d="M169.48,419.45c-1.76,3.42-4.06,5.27-6.93,5.54-2.05.2-4.48-.42-7.26-1.85l-3.29-1.86c-1.29-.67-2.44-.97-3.44-.91-.76.03-1.49.3-2.2.8-.39.26-.77.49-1.15.72-.38.22-.74.25-1.09.07-.5-.26-.6-.68-.29-1.28l.94-1.83c.4-.77,1.44-1.05,3.14-.81.87.07,1.78.27,2.72.61.94.33,1.89.75,2.85,1.24l2.74,1.52c1.82.94,3.45,1.08,4.88.43,1.43-.65,2.81-2.28,4.15-4.89,1.37-2.67,1.48-4.3.33-4.89-.38-.2-.78-.23-1.18-.1-.4.13-.73.44-.98.92l-2.76,5.39c-.12.24-.16.45-.1.63.06.18.2.43.42.73.21.41.24.75.1,1.02-.23.45-.73.49-1.48.1l-4.94-2.54c-.57-.29-.74-.68-.49-1.16.2-.39.55-.56,1.06-.51.5.05.92-.24,1.24-.87l6.26-12.2c.23-.45.11-.8-.36-1.04l-2.71-1.39c-.24-.12-.44-.02-.61.31l-5.99,11.66c-.34.66-.51,1.13-.5,1.42,0,.29.17.62.51,1,.33.38.4.77.2,1.16-.25.48-.8.5-1.67.05l-3.11-1.6c-.57-.29-.72-.71-.44-1.25.2-.39.57-.55,1.1-.49.54.07.92,0,1.15-.18.23-.19.46-.51.69-.96l5.63-10.96c.37-.72.37-1.31,0-1.77-.33-.32-.58-.58-.76-.79-.18-.21-.18-.49,0-.85.12-.24.33-.35.63-.33.29.02.85.23,1.66.65l14.31,7.35c.48.24.77.48.86.7.1.22.09.51-.02.87l-.52,1.89c-.25.78-.74.99-1.46.62-.18-.09-.34-.32-.47-.7-.13-.37-.27-.75-.4-1.15-.14-.39-.37-.78-.69-1.15-.32-.37-.75-.7-1.29-.98-.45-.23-.76-.34-.91-.33-.16.01-.33.2-.51.56l-2.4,4.68c.56-.28,1.08-.43,1.57-.45.48-.02,1.1.17,1.85.55,1.56.8,2.44,1.99,2.63,3.57.19,1.58-.21,3.34-1.21,5.29"></path><path class="cls-5" d="M192.69,416.79c-.03.28-.18.52-.44.72-.26.21-.52.26-.77.17-.35-.13-.65-.52-.92-1.15-.17-.4-.32-.8-.46-1.2-.29-.57-.7-.95-1.24-1.15-.41-.16-.72-.18-.92-.08-.2.1-.43.48-.67,1.11l-4.67,12.19c-.26.67-.17,1.2.26,1.58.34.24.43.57.27.98-.2.51-.61.64-1.23.41l-5.12-1.96c-.31-.12-.56-.28-.73-.47-.18-.19-.21-.43-.1-.72.12-.32.43-.51.92-.58.32.01.55-.05.7-.2.15-.14.33-.5.55-1.07l4.69-12.25c.16-.41.23-.71.21-.9-.02-.19-.19-.35-.5-.47l-3.39-1.3-5.13,13.4c-.29.76-.2,1.34.28,1.74.48.4.64.81.48,1.22-.18.48-.63.58-1.36.3l-3.45-1.32c-.28-.11-.52-.28-.7-.51s-.22-.48-.13-.73c.11-.28.4-.44.89-.48.48-.03.79-.08.92-.14.41-.13.7-.4.85-.81l4.7-12.27c.29-.76.13-1.38-.47-1.87-.28-.18-.46-.34-.54-.48-.08-.14-.06-.37.06-.68.18-.47.59-.59,1.21-.35l15.83,6.06c.44.17.6.59.49,1.27l-.38,1.97Z"></path><path class="cls-5" d="M211.41,432.92c-.9,3.42-2.58,5.8-5.04,7.15-2.46,1.35-5.26,1.62-8.39.8-3.03-.8-5.15-2.86-6.35-6.18-1.2-3.33-1.25-7.09-.15-11.29,1.4-5.34,3.63-8.95,6.71-10.82,2.36-1.43,5.01-1.77,7.95-1,2.67.7,4.64,2.18,5.9,4.42.38.69.69,1.57.93,2.62.25,1.06.41,1.76.5,2.09.09.34.25.61.49.83.24.22.32.48.24.77-.16.62-.7.81-1.61.57l-4.45-1.17c-.42-.11-.71-.27-.84-.48-.14-.21-.17-.46-.09-.76.05-.2.26-.36.62-.49.36-.13.62-.47.77-1.03.27-1.04.17-2.12-.31-3.22-.58-1.37-1.59-2.25-3.03-2.62-2.48-.65-4.7-.17-6.65,1.44-2.26,1.84-3.98,5-5.15,9.46-.91,3.48-1.02,6.62-.32,9.41.8,3.2,2.55,5.16,5.26,5.87,1.96.51,3.65.12,5.09-1.17,1.44-1.29,2.49-3.22,3.16-5.79.97-3.71.59-5.78-1.13-6.24-.59-.15-1.11,0-1.56.48-.46.47-.87,1.42-1.24,2.85l-.92,3.51c-.18.68-.07,1.2.33,1.54.4.35.55.68.47,1.01-.09.32-.28.52-.57.58-.3.06-.67.03-1.13-.09l-4.6-1.21c-.82-.21-1.15-.61-.99-1.2.09-.33.37-.53.87-.61.49-.08.79-.33.9-.75l3.51-13.37c.15-.55.03-1.02-.34-1.39-.37-.38-.53-.68-.47-.9.15-.59.67-.77,1.54-.54l4.67,1.22c.87.23,1.23.65,1.07,1.28-.06.23-.35.41-.88.55-.53.14-.85.46-.98.95l-1.28,4.89c.65-.6,1.16-.95,1.53-1.06.61-.19,1.47-.14,2.58.15,1.73.45,2.89,1.46,3.47,3.02.58,1.56.56,3.53-.06,5.9"></path><path class="cls-5" d="M243.64,436.76c-.38,3.96-1.83,6.62-4.37,7.97-1.79.95-4.19,1.28-7.21.99l-3.71-.51c-1.44-.14-2.64.02-3.6.47-.71.34-1.3.86-1.77,1.56-.24.38-.48.77-.72,1.15-.27.31-.6.45-1.01.41-.6-.06-.88-.42-.81-1.08l.21-2.15c.04-.4.28-.75.74-1.06.45-.31,1.1-.56,1.93-.75,1.77-.47,3.7-.61,5.78-.41.37.04.95.12,1.73.24.78.13,1.23.19,1.33.2,1.98.19,3.53-.29,4.63-1.44,1.11-1.15,1.8-3.16,2.08-6.05.3-3.09-.23-4.7-1.57-4.82-.44-.04-.81.1-1.13.42-.32.33-.5.74-.55,1.24l-.56,5.83c-.05.47.17.89.64,1.24.48.35.7.68.67.98-.05.54-.5.77-1.34.69l-5.49-.52c-.64-.06-.93-.38-.88-.95.04-.37.3-.65.79-.84s.77-.61.83-1.25l1.26-13.23c.08-.81-.24-1.25-.94-1.31l-3.27-.31-1.34,14.04c-.07.77.18,1.34.78,1.71.59.36.87.73.83,1.1-.05.57-.57.81-1.54.72l-3.48-.33c-.64-.06-.93-.38-.88-.95.04-.47.39-.78,1.03-.92.64-.14.99-.57,1.06-1.27l1.23-12.87c.06-.64-.26-1.16-.97-1.57-.71-.41-1.04-.79-1.01-1.17.04-.37.25-.58.64-.63.39-.05.93-.04,1.6.03l7.35.7c-.38-.65-.64-1.5-.8-2.55-.15-1.05-.2-1.95-.12-2.69.19-1.95.87-3.57,2.06-4.86,1.19-1.28,2.74-1.83,4.65-1.65,1.28.12,2.22.75,2.82,1.88.6,1.13.84,2.4.7,3.82-.13,1.39-.64,2.57-1.53,3.56-.89.99-1.96,1.42-3.2,1.3-1.07-.1-1.9-.64-2.49-1.61-.59-.97-.82-2.08-.7-3.32.07-.71.17-1.25.31-1.65-.52.49-.84,1.34-.95,2.55-.24,2.55.51,4.39,2.27,5.5l5.89.56c.54.05.86.39.97,1.01l.21,2.05c.04.31-.04.58-.23.82-.19.24-.46.34-.79.31-.2-.02-.67-.44-1.4-1.25-.73-.82-1.62-1.27-2.66-1.37-.81-.08-1.24.19-1.29.79l-.5,5.19c.42-.5.86-.84,1.32-1.02.46-.18,1.1-.22,1.95-.14,1.61.15,2.82.92,3.62,2.3.8,1.38,1.1,3.11.9,5.19M239.14,414.65c.05-.54-.03-1.05-.24-1.51-.21-.46-.55-.72-1.02-.77-.54-.05-.99.16-1.36.64-.37.48-.58,1.04-.64,1.69-.05.58.03,1.08.26,1.51.23.43.6.67,1.1.72.6.06,1.05-.14,1.35-.59.3-.45.48-1.01.54-1.7"></path><path class="cls-5" d="M264.16,425.91c.07.27.02.55-.14.84-.17.29-.38.43-.65.44-.37,0-.8-.24-1.27-.72-.31-.31-.6-.63-.87-.94-.48-.42-1-.62-1.58-.62-.44,0-.73.1-.88.27-.15.17-.22.6-.21,1.28l.16,13.05c0,.72.28,1.17.83,1.37.41.1.61.37.62.81,0,.55-.33.82-1,.83l-5.48.07c-.33,0-.62-.05-.86-.17-.24-.12-.36-.33-.36-.63,0-.34.21-.63.65-.88.3-.1.49-.25.58-.44.08-.19.12-.59.11-1.2l-.16-13.11c0-.44-.05-.75-.14-.92-.09-.17-.3-.25-.64-.25l-3.63.04.17,14.35c0,.81.31,1.32.9,1.51.59.2.89.52.9.96,0,.51-.38.77-1.15.78l-3.69.04c-.3,0-.58-.07-.84-.22-.26-.15-.39-.36-.39-.63,0-.3.21-.56.65-.77.43-.21.7-.36.8-.47.33-.27.5-.63.49-1.07l-.16-13.13c-.01-.81-.39-1.33-1.13-1.56-.32-.06-.55-.14-.68-.25-.13-.1-.2-.32-.2-.66,0-.51.33-.77.99-.77l16.95-.2c.47,0,.78.33.92,1l.38,1.97ZM256.31,416.95c.01.91-.25,1.67-.78,2.29-.53.62-1.24.93-2.11.94-.94.01-1.73-.26-2.36-.81-.63-.55-.95-1.26-.96-2.14,0-.84.27-1.57.83-2.18.57-.61,1.29-.93,2.16-.94.91-.01,1.67.25,2.29.78.61.53.93,1.22.94,2.06"></path><path class="cls-5" d="M291.83,420.35c.06.47-.16.81-.65,1.03-.5.22-.7.71-.59,1.48l1.74,12.95c.09.7.39,1.12.88,1.26.48.04.76.31.82.81.08.57-.42.92-1.49,1.06l-13.23,1.78c-.5.07-.87.05-1.1-.06-.24-.1-.38-.37-.44-.81-.06-.43.23-.79.85-1.08.62-.29,1.05-1.24,1.27-2.87.22-1.63.21-3.37-.04-5.24-.27-2.03-.86-3.7-1.75-5.01-1.14-1.64-2.6-2.35-4.37-2.11-2.17.29-3.8,1.44-4.89,3.45-.93,1.72-1.25,3.59-.98,5.62.19,1.4.46,2.59.81,3.58.36.99.84,1.64,1.46,1.96-.25-.34-.48-.82-.68-1.46-.21-.63-.35-1.23-.42-1.8-.26-1.9-.09-3.47.49-4.74.58-1.26,1.52-1.98,2.82-2.16,1.3-.17,2.37.31,3.21,1.45.83,1.14,1.37,2.6,1.61,4.36.27,2,.07,3.75-.59,5.26-.66,1.51-1.7,2.37-3.1,2.55-1.84.25-3.45-.36-4.84-1.82-1.39-1.46-2.27-3.59-2.64-6.39-.43-3.17.05-5.84,1.42-8.03,1.52-2.38,3.91-3.79,7.19-4.23,2.81-.38,5.06.19,6.76,1.69,1.7,1.51,2.77,3.9,3.21,7.17.21,1.54.27,2.89.19,4.06-.11,1.72-.5,3.08-1.18,4.09l4.06-.55-1.91-14.19c-.06-.47-.13-.79-.21-.97-.08-.18-.23-.29-.46-.35-.23-.05-.43-.13-.62-.22-.18-.1-.29-.26-.32-.49-.09-.63.27-1.01,1.07-1.11l5.46-.73c.7-.1,1.09.16,1.17.76M275.15,436.33c-.08-.59-.35-1.15-.81-1.67-.46-.52-.98-.75-1.54-.67-.6.08-1.03.47-1.3,1.18-.26.7-.36,1.32-.29,1.84.1.72.36,1.37.8,1.95.44.58.94.83,1.51.75.63-.08,1.1-.44,1.39-1.06.29-.62.37-1.4.25-2.32"></path><path class="cls-5" d="M324.51,412.59c.33.74.27,1.24-.18,1.48-.41.16-.85.11-1.32-.15-.47-.26-.9-.46-1.29-.58-.67-.22-1.16-.28-1.48-.18-.52.16-.84.32-.96.48-.13.16-.09.55.09,1.16l3.86,12.62c.13.42.49.73,1.08.94.24.1.43.2.56.28.13.08.23.22.29.41.17.55-.1.93-.81,1.15l-4.84,1.48c-.42.13-.75.18-.99.14-.24-.03-.41-.23-.52-.58-.08-.26-.06-.48.06-.66.12-.18.22-.32.3-.41.08-.1.19-.2.33-.31.17-.26.18-.6.05-1.02l-4.3-14.07-3.87,1.18,4.26,13.92c.21.68.5,1.03.88,1.06.38.03.64.07.78.13.14.06.26.25.36.58.16.52-.28.93-1.31,1.25l-4.5,1.38c-.42.13-.76.17-1.02.13-.26-.04-.44-.23-.54-.55-.14-.45-.06-.77.24-.95.3-.18.48-.38.56-.6.08-.22.02-.62-.15-1.2l-2.7-8.83c-.55-1.81-1.26-2.96-2.11-3.44-.85-.48-2.08-.48-3.7.02-2.19.67-3.63,2.04-4.3,4.11-.56,1.75-.49,3.75.2,6,.35,1.16.76,2.1,1.21,2.82.45.72,1.02,1.29,1.72,1.72-.44-.64-.81-1.19-1.09-1.67-.29-.47-.52-1.02-.71-1.63-.57-1.86-.68-3.51-.32-4.93.36-1.42,1.23-2.35,2.62-2.78,1.48-.45,2.79-.06,3.9,1.18.91,1.02,1.67,2.53,2.28,4.52.48,1.58.56,3.11.25,4.62-.39,1.84-1.31,2.98-2.76,3.43-2.03.62-3.83.28-5.39-1.01-1.56-1.3-2.73-3.2-3.49-5.71-.91-2.96-.91-5.58-.02-7.86,1.04-2.6,3.11-4.38,6.2-5.33,1.52-.46,2.9-.64,4.15-.53,1.25.11,2.07.44,2.45,1l-.62-2.03,13.74-4.2c.68-.21,1.12-.3,1.34-.28.22.02.44.24.67.64l.88,1.66ZM305.21,430.43c-.6-1.95-1.54-2.73-2.83-2.33-.71.22-1.13.72-1.26,1.51-.13.79-.04,1.7.28,2.72.28.9.65,1.51,1.14,1.83.49.32,1.04.39,1.65.2.55-.17.92-.64,1.13-1.42.2-.78.17-1.62-.11-2.51"></path><path class="cls-5" d="M348.46,412.92c1.35,2.86,1.49,5.47.41,7.84-1,2.15-2.86,3.86-5.57,5.14l-3.7,1.75c-1.07.5-1.89,1.12-2.46,1.83-.58.72-.92,1.65-1.02,2.8-.11,1.15-.35,1.81-.71,1.98-.21.1-.43.12-.65.05-.22-.06-.36-.17-.43-.33l-.93-1.96c-.4-.85-.15-1.79.74-2.81.54-.59,1.3-1.22,2.29-1.9.99-.67,2.03-1.27,3.13-1.79l1.83-.87c1.86-.88,2.99-2.2,3.39-3.95.4-1.75,0-3.92-1.23-6.5-.65-1.36-1.29-2.22-1.94-2.56-.65-.35-1.35-.34-2.11.02l1.42,2.99c1.13,2.39,1.44,4.43.94,6.13-.5,1.7-1.62,2.96-3.36,3.78-1.55.74-3.17.83-4.85.28-1.68-.55-2.91-1.66-3.7-3.33-.66-1.4-.98-2.63-.93-3.69.04-1.06.43-2.18,1.18-3.35l-2.03-4.29c-.12-.24-.45-.35-.99-.31-.54.03-.89-.12-1.05-.45-.27-.58.02-1.07.87-1.47l11.93-5.65c.49-.23.87-.35,1.14-.37.27-.02.54.14.81.46l1.39,1.88c.41.55.23,1.01-.53,1.37-.12.06-.7-.09-1.75-.44-1.04-.35-1.98-.33-2.8.05-.4.19-.51.47-.33.84l1.81,3.83,1.83-.86c1.68-.79,3.26-.76,4.75.1,1.33.75,2.4,1.99,3.22,3.72M333.79,398.12c.35.73.39,1.5.13,2.29-.26.79-.8,1.38-1.62,1.78-.76.36-1.54.41-2.33.15-.79-.26-1.38-.78-1.75-1.58s-.42-1.59-.13-2.4c.29-.81.81-1.39,1.58-1.75.76-.36,1.55-.4,2.36-.11.81.29,1.4.83,1.77,1.62M334.1,412.13l-2.01-4.25-2.19,1.04,2.01,4.25,2.19-1.04ZM337.06,418.39l-2.14-4.52-1.69.8c-1.01.48-1.62,1.27-1.85,2.37-.22,1.1-.03,2.3.58,3.6.53,1.12,1.18,1.87,1.97,2.28.79.4,1.64.39,2.55-.05.76-.36,1.16-.96,1.2-1.78.04-.83-.17-1.73-.63-2.69"></path><path class="cls-5" d="M379.63,403.81c.35.54.02,1.14-1,1.79l-7.32,4.75c.05,1.49-.35,3.14-1.19,4.93-1.01,2.14-2.46,3.83-4.35,5.05s-3.63,1.87-5.22,1.95c-1.86.09-3.28-.61-4.24-2.1-.38-.59-.46-1.15-.22-1.68.23-.53.69-1.01,1.36-1.45l9.83-6.38c-.35-1.15-.77-2.27-1.27-3.38-.5-1.11-1.15-2.29-1.97-3.54-1.2-1.85-2.19-2.98-2.98-3.39-.79-.41-1.54-.39-2.25.07l2.1,3.24c1.51,2.33,2.09,4.38,1.74,6.14-.3,1.53-1.32,2.85-3.05,3.98-1.54.99-3.04,1.35-4.52,1.06-1.7-.31-3.17-1.43-4.42-3.36-1.68-2.58-1.89-4.86-.64-6.84l-2.24-3.45c-.31-.48-.85-.66-1.61-.52-.4.06-.69-.04-.85-.29-.35-.54-.1-1.08.76-1.64l11.24-7.29c.43-.28.74-.44.95-.49.21-.05.51.13.9.56l1.39,1.39c.17.21.24.49.21.83-.04.35-.18.6-.44.77-.2.13-.78.05-1.74-.23-.96-.28-1.83-.17-2.59.33-.14.09-.29.19-.43.31-.15.12-.12.32.06.61l2.2,3.38,1.86-1.2c1.49-.97,3.01-1.05,4.56-.27,1.55.79,2.95,2.15,4.2,4.08.92,1.42,1.58,2.67,1.97,3.74.4,1.07.64,2.05.72,2.92l1.23-.8c.93-.61,1.07-1.42.41-2.43l-9.11-14.05c-.36-.55-.8-.79-1.31-.71-.51.08-.87-.04-1.08-.36-.29-.44-.14-.84.42-1.21l4.75-3.08c.59-.39,1.03-.37,1.3.06.17.26.11.61-.15,1.06-.27.46-.26.9,0,1.32l9.61,14.81c.37.57.91.82,1.63.75.37-.04.63.05.78.28M353.7,401.57l-2.51-3.86-2.04,1.32,2.51,3.86,2.04-1.32ZM357.47,407.39l-2.78-4.29-1.65,1.07c-.96.62-1.51,1.5-1.65,2.62-.14,1.12.21,2.33,1.05,3.62.83,1.29,1.69,2.07,2.58,2.35.88.28,1.76.13,2.64-.43.71-.46,1.04-1.1,1.01-1.93-.04-.83-.43-1.83-1.19-3M367.29,412.95l-8.53,5.53c-.51.33-.63.71-.35,1.13.44.68,1.28.92,2.52.72,1.24-.2,2.43-.67,3.6-1.43.96-.62,1.69-1.47,2.19-2.53.49-1.07.69-2.21.58-3.42"></path><path class="cls-5" d="M393.71,373.08c2.35,2.64,3.64,5.1,3.9,7.37.25,2.27-.39,4.09-1.93,5.45-.73.65-1.31.73-1.74.25-.31-.35-.27-.71.14-1.07.45-.4.45-1.32-.01-2.76-.58-1.77-1.7-3.59-3.35-5.45-1.47-1.66-2.99-2.79-4.55-3.38-1.56-.59-2.77-.51-3.63.25-.18.16-.37.33-.59.52-.21.19-.37.44-.46.74,2.31.16,4.67,1.6,7.09,4.33,1.77,1.99,2.88,4.01,3.33,6.04.45,2.03,0,3.65-1.37,4.86-.63.56-1.27.85-1.93.87-.66.02-1.36-.13-2.1-.47.17.85.17,1.62,0,2.33-.16.71-.56,1.34-1.19,1.9-1.44,1.27-3.19,1.56-5.27.84-1.82-.63-3.5-1.81-5.03-3.54-2.45-2.76-3.64-5.37-3.57-7.83.07-2.46,1.24-4.7,3.51-6.71,1.16-1.03,2.54-1.87,4.13-2.51.35-.67.68-1.2.99-1.59.31-.39.81-.88,1.49-1.49,1.79-1.59,3.84-2.29,6.14-2.11,2.3.18,4.3,1.23,6,3.14M378.19,378.16c-.84.07-1.75.54-2.74,1.41-1.59,1.41-2.3,3.12-2.14,5.13s1.24,4.14,3.24,6.4c.82.93,1.74,1.7,2.77,2.32,1.02.62,1.75.92,2.17.89-.5-.31-1.05-.68-1.64-1.09-.59-.41-1.21-.98-1.85-1.71-1.2-1.35-1.93-2.61-2.22-3.79-.35-1.52.05-2.79,1.21-3.82.68-.61,1.43-.88,2.24-.83-.42-.88-.74-1.75-.95-2.6-.21-.85-.24-1.61-.08-2.3M385.25,382.99c-1.16-1.31-2.18-2.31-3.05-3-.87-.69-1.6-1.12-2.17-1.29-.2.58,0,1.54.62,2.87.61,1.33,1.56,2.71,2.83,4.15,1.43,1.61,2.56,2.68,3.37,3.2.81.52,1.41.61,1.78.28.27-.24.1-.97-.51-2.19-.61-1.22-1.57-2.55-2.87-4.02M384.05,389.63c-.54-.61-1.14-1.02-1.78-1.25-.65-.22-1.22-.11-1.73.34-.48.43-.63.99-.47,1.68.17.7.51,1.33,1.03,1.92.59.66,1.18,1.09,1.78,1.28.6.2,1.15.07,1.66-.38.43-.38.58-.94.45-1.66-.13-.73-.44-1.37-.94-1.93"></path><path class="cls-5" d="M410.61,354.9c1.28,1.1,2.27,2.04,2.97,2.83,1.41,1.57,2.38,3.12,2.93,4.66.66,1.86.78,3.64.36,5.32-.42,1.68-1.52,3.55-3.28,5.59l-2.11,2.45-.76.88c-.48.56-.86,1.09-1.14,1.59-.27.5-.43,1.06-.48,1.69-.04.41.06.92.29,1.52.31.62.62,1.24.93,1.87.13.47.07.84-.17,1.12-.35.5-.76.55-1.25.13l-2.88-2.47c-.14-.87-.06-1.72.24-2.53.3-.81,1-1.86,2.1-3.14l3.89-4.52c.6-.69.99-1.34,1.2-1.94.2-.6.34-1.3.4-2.09.05-1.2-.51-2.61-1.7-4.23-1.18-1.62-2.66-3.19-4.42-4.71-1.84-1.58-3.4-2.66-4.69-3.24-1.68-.74-2.9-.66-3.66.22-.94,1.09-.5,2.42,1.32,3.98l8.28,7.13c.38.33.71.5.97.5.05,0,.26-.07.65-.21.38-.14.73-.07,1.04.19.18.15.26.38.23.67-.03.29-.14.55-.34.78l-3.49,4.05c-.55.64-1.05.78-1.48.4-.28-.24-.39-.58-.33-1.02.06-.17.1-.35.14-.55.02-.39-.14-.72-.47-1.01l-9.61-8.27c-1-.86-1.95-.77-2.85.28-.48.56-.64,1.13-.46,1.71.18.58.6,1.15,1.27,1.73l9.1,7.83c.49.42.95.45,1.37.08.43-.37.85-.37,1.26-.02.18.15.27.35.26.59,0,.24-.11.48-.3.71l-2.18,2.53c-.24.28-.47.46-.7.54-.22.08-.45.01-.68-.18-.36-.31-.41-.7-.16-1.17.25-.47.11-.94-.43-1.4l-7.76-6.68c-1.85-1.59-2.79-3.21-2.85-4.86-.03-1.36.51-2.69,1.61-3.97.86-1,1.68-1.67,2.44-2.02.76-.35,1.61-.39,2.54-.12-.5-.96-.5-2,0-3.11.21-.44.47-.86.8-1.24,1.84-2.14,4.08-2.8,6.72-1.99,1.66.5,3.42,1.55,5.29,3.16"></path><path class="cls-4" d="M90.88,348.82c-23.04-32.39-36.58-72-36.58-114.78s12.48-79.21,33.86-110.86"></path><path class="cls-4" d="M416.98,123.19c21.38,31.64,33.86,69.79,33.86,110.86s-13.54,82.38-36.58,114.77"></path></svg>